PathFileType  4	(X/Y/Z) C:\Users\antoi\Documents\MyRepositories\mobilecap\ResultsAnalysis
DataRate	CameraRate	NumFrames	NumMarkers	Units	OrigDataRate	OrigDataStartFrame	OrigNumFrames
100.0	100.0	4	51	mm	100.0	20	157
Frame#	Time	r_knee			r_shank_antsup			r_ankle			r_calc			r_5meta			r_toe			L_knee			L_shank_antsup			L_ankle			L_calc			L_5meta			L_toe			r_sh2			r_sh3			r_sh4			L_sh2			L_sh3			r_thigh1			r_thigh2			r_thigh3			r_thigh4			r_thigh5			L_thigh1			L_thigh2			L_thigh3			L_thigh4			r.ASIS			r.PSIS			L.ASIS			L.PSIS			C7			R_Shoulder			L_Shoulder			R_Sternum			L_Sternum			R_humerus			R_elbow_med			R_elbow_lat			R_forearm			R_wrist_radius			R_wrist_ulna			L_humerus			L_elbow_med			L_elbow_lat			L_forearm			L_wrist_radius			L_wrist_ulna			R_HJC			L_HJC			R_HJC_reg			L_HJC_reg			
		X1	Y1	Z1	X2	Y2	Z2	X3	Y3	Z3	X4	Y4	Z4	X5	Y5	Z5	X6	Y6	Z6	X7	Y7	Z7	X8	Y8	Z8	X9	Y9	Z9	X10	Y10	Z10	X11	Y11	Z11	X12	Y12	Z12	X13	Y13	Z13	X14	Y14	Z14	X15	Y15	Z15	X16	Y16	Z16	X17	Y17	Z17	X18	Y18	Z18	X19	Y19	Z19	X20	Y20	Z20	X21	Y21	Z21	X22	Y22	Z22	X23	Y23	Z23	X24	Y24	Z24	X25	Y25	Z25	X26	Y26	Z26	X27	Y27	Z27	X28	Y28	Z28	X29	Y29	Z29	X30	Y30	Z30	X31	Y31	Z31	X32	Y32	Z32	X33	Y33	Z33	X34	Y34	Z34	X35	Y35	Z35	X36	Y36	Z36	X37	Y37	Z37	X38	Y38	Z38	X39	Y39	Z39	X40	Y40	Z40	X41	Y41	Z41	X42	Y42	Z42	X43	Y43	Z43	X44	Y44	Z44	X45	Y45	Z45	X46	Y46	Z46	X47	Y47	Z47	X48	Y48	Z48	X49	Y49	Z49	X50	Y50	Z50	X51	Y51	Z51	

20	0.19000000	231.54772	489.09936	-79.19314	274.51660	442.92348	-92.52159	177.88443	91.65831	-104.01577	117.01914	57.63349	-149.50864	319.10164	35.75394	-64.14730	347.21885	60.87692	-122.84183	49.61111	442.84537	-375.87611	4.84527	369.63156	-383.06043	-292.87766	253.53743	-337.09207	-346.30060	290.47025	-279.01874	-303.80731	113.18549	-359.06955	-260.06654	85.73629	-313.51946	265.85325	329.55708	-104.40544	209.38778	439.85253	-48.45534	202.64745	324.07268	-47.16155	-31.75455	449.21199	-389.05987	-138.53666	389.89370	-381.47295	217.62600	790.98796	-137.81395	259.58331	689.28037	-134.85089	256.84125	665.95180	-69.50612	166.87794	773.13571	-36.27357	209.94719	667.85299	-36.90758	101.04098	756.01724	-386.52495	97.57008	614.08811	-394.72199	-10.23729	756.23343	-375.17676	-12.42107	623.03920	-358.30016	171.06033	933.20695	-104.13065	-28.93472	971.56745	-165.73487	152.67160	906.32708	-335.55491	-37.19391	962.69231	-262.77790	35.52169	1423.79977	-155.17016	68.03726	1344.35816	4.22957	117.11968	1393.55665	-317.99138	137.59678	1315.49430	-143.98159	144.39580	1319.52637	-182.31843	51.95902	1094.20365	44.49633	2.34115	1015.05922	-10.85171	17.98674	1006.89730	47.21478	71.80696	871.74663	59.17501	111.18131	775.23023	40.52525	66.71362	769.51830	61.92813	105.76010	1175.25152	-432.78643	42.44921	1073.22505	-412.56457	74.26563	1082.99377	-461.22022	139.04178	953.06893	-482.71172	171.68201	846.66899	-468.05777	142.62744	844.89591	-501.73139	88.37671	853.42204	-123.80391	61.86741	842.93466	-312.33093	94.80750	862.01204	-123.77284	81.78085	848.01441	-276.83094	
21	0.20000000	235.13722	488.81039	-78.51615	277.48571	442.31099	-91.91856	177.84918	91.75929	-103.86496	117.07897	57.73705	-149.53078	319.11599	35.69912	-64.11300	347.22775	60.80750	-122.78398	71.47298	445.98975	-375.30216	27.06003	373.50558	-381.88116	-270.78109	258.83312	-334.97665	-324.24726	294.26282	-275.71838	-280.77161	119.38559	-360.17631	-236.54666	90.99903	-315.67316	267.90726	329.03428	-103.96414	212.52840	439.64356	-47.57966	204.89145	323.91412	-46.42635	-8.88928	453.12309	-387.27907	-116.05366	394.59624	-379.55007	225.09356	791.00421	-137.58707	265.58226	688.59324	-134.44054	263.28782	665.65513	-69.14133	175.16082	774.25529	-35.57276	216.72895	668.38854	-36.22285	113.65303	759.93022	-385.72337	114.04930	617.98677	-394.40997	2.53648	757.17860	-373.77475	3.90612	624.29203	-356.77852	180.86358	935.22100	-102.78102	-19.19635	974.13328	-164.51369	162.92360	909.43001	-334.43065	-27.35272	965.54549	-261.63472	46.82741	1426.88574	-154.24949	80.05540	1348.10409	5.22854	127.73280	1396.05525	-317.25868	148.78109	1318.48935	-143.20210	155.32455	1322.27458	-181.51498	64.44025	1098.00196	45.96645	14.50660	1018.66834	-9.01933	30.70494	1010.54061	48.93537	86.27701	875.93575	60.22259	126.86689	780.03046	41.15938	82.67167	773.65436	62.67043	114.03131	1177.96660	-432.39195	50.25494	1076.46629	-411.80193	82.14210	1085.93276	-460.47956	145.92636	955.53699	-482.18735	177.70129	848.79795	-467.56118	148.75414	847.38941	-501.33859	98.08319	855.62374	-122.96073	71.87699	845.99954	-311.57761	104.55645	864.40430	-122.75976	91.69461	850.86247	-275.91287	
22	0.21000000	238.41160	488.50911	-77.74990	280.29889	441.72527	-91.45397	177.81673	91.83978	-103.66955	117.15754	57.84764	-149.55419	319.14620	35.63256	-64.06563	347.22134	60.73085	-122.70599	93.08733	449.59078	-374.59863	49.25147	377.73623	-380.79207	-248.06697	262.87596	-332.92738	-301.94348	296.38972	-272.72210	-255.96857	124.20777	-361.18615	-211.26473	95.26913	-317.48406	269.83598	328.54930	-103.68626	215.73961	439.37698	-46.50548	207.30504	323.70413	-45.51156	13.49900	457.16526	-385.42419	-93.65465	398.79295	-377.54357	231.92026	790.82953	-137.13674	271.16992	687.74066	-133.76266	269.32561	665.18991	-68.51553	183.05200	775.26369	-34.78828	223.02920	668.82792	-35.34539	126.23859	764.13353	-384.99615	130.50009	622.31818	-394.20528	15.27478	758.44762	-372.63013	20.35075	625.74285	-355.37076	190.60871	937.33911	-101.41531	-9.56995	976.71703	-163.27234	172.97559	912.69486	-333.26666	-17.61716	968.51157	-260.47003	58.00355	1430.04494	-153.45981	92.20441	1351.95976	6.07779	138.03689	1398.57757	-316.71938	159.92531	1321.54877	-142.56126	166.13962	1325.07351	-180.87419	77.07817	1101.96355	47.43393	26.50194	1022.41699	-6.91508	43.43370	1014.37303	50.86779	100.86637	880.35433	61.36431	142.60513	785.11594	41.83369	98.79815	778.01358	63.53602	122.07094	1180.64449	-432.03831	57.82871	1079.68545	-411.02620	89.73326	1088.80389	-459.76490	152.47710	957.97715	-481.76087	183.61072	851.00866	-467.21413	154.60259	849.81266	-500.90113	107.71314	857.90673	-122.12580	81.77439	849.19226	-310.82495	114.23039	866.78211	-121.78351	101.54265	853.84510	-275.03608	
23	0.22000000	241.32816	488.23507	-76.84881	282.86203	441.19176	-90.97001	177.78469	91.89874	-103.44915	117.23004	57.96147	-149.56397	319.18562	35.55482	-64.00164	347.19651	60.65350	-122.60090	114.44052	453.58388	-373.76374	71.40634	382.18739	-379.77018	-224.80785	265.57210	-331.03917	-279.27875	296.95378	-270.12606	-229.82928	127.49789	-361.95398	-184.60454	98.38750	-318.80799	271.56785	328.12398	-103.42141	218.79465	439.10066	-45.28346	209.62482	323.48826	-44.48713	35.39054	461.17984	-383.57787	-71.37248	402.30495	-375.53549	238.26082	790.53747	-136.37261	276.51480	686.82224	-132.75651	274.95044	664.57356	-67.56639	190.51067	776.16295	-33.87059	228.82014	669.16117	-34.25857	138.78468	768.57653	-384.32005	146.90515	627.03096	-394.08189	27.98366	759.96883	-371.70329	36.91804	627.32465	-354.18398	200.29865	939.53958	-100.01727	-0.01487	979.30463	-161.99532	182.88832	916.11102	-332.05677	-7.95768	971.55423	-259.26690	69.04255	1433.24740	-152.78984	104.41676	1355.89134	6.78323	148.01507	1401.12437	-316.36143	171.00097	1324.65676	-142.06733	176.81347	1327.92344	-180.40116	89.89193	1106.05381	48.89070	38.37304	1026.25340	-4.53636	56.24329	1018.34514	53.00054	115.59365	884.95827	62.58699	158.36078	790.43311	42.52854	115.05609	782.56727	64.53171	129.94882	1183.25788	-431.66153	65.23948	1082.84014	-410.21827	97.10887	1091.59476	-459.04857	158.75077	960.36830	-481.39601	189.38230	853.25777	-467.00357	160.15993	852.14867	-500.43045	117.29788	860.24830	-121.28781	91.60659	852.49655	-310.06292	123.86235	869.16182	-120.81091	111.34046	856.94337	-274.16532	
